<?xml version="1.0" encoding="UTF-8"?>
<!-- Generator: Fusion 360, Shaper Origin Export Add-In, Version 1.6.3  -->
<svg width="11.571cm" height="11.7cm" enable-background="new 0 0 11.5707481 11.7" shaper:fusionaddin="version:1.6.3" version="1.1" viewBox="0 0 11.571 11.7" xml:space="preserve" xmlns="http://www.w3.org/2000/svg" xmlns:shaper="http://www.shapertools.com/namespaces/shaper"><g transform="matrix(.8429 0 0 .80804 .88744 1.369)" stroke-width="1.2117"><path transform="matrix(1 0 0 -1 5.7854 5)" d="m3.2864-0.29919a3.3 3.3-5.2018 1 0-0.00313 0.63097l-1.1056-0.019298a2.2 2.2 8.1657 1 1-0.47042-1.7h-1.7073v1.1h2.1811a2.2 2.2-7.5095 0 1 9.888e-4 0.007603z" stroke-linecap="round" stroke-linejoin="round" stroke-width="1.4682" shaper:cutDepth="0.0000035"/></g><g transform="matrix(.8429 0 0 .80804 .88744 1.369)" stroke-width="1.2117"><path transform="matrix(1 0 0 -1 5.7854 5)" d="m3.4869-0.30269a3.5 3.5-4.9613 1 0-0.00298 0.63797l1.1024 0.019243a4.6 4.6 4.4202 1 1 0.0024-0.67645z" stroke-linecap="round" stroke-linejoin="round" stroke-width="1.4682" shaper:cutDepth="0.0000035"/></g><g transform="matrix(.86122 0 0 .81564 .78792 1.3375)" stroke-linecap="round" stroke-linejoin="round"><path transform="matrix(1 0 0 -1 5.7854 5)" d="m-4.3428-2.4779-1.4425-0.9014a6.7 6.7-149.71 0 1 11.571 0l-1.4425 0.9014a5 5-29.708 1 1-8.6857 0z" stroke-width="1.4764" shaper:cutDepth="0.000004"/><path transform="matrix(1 0 0 -1 5.7854 5)" d="m-4.8 0a4.8 4.8 0 1 1 9.6 0 4.8 4.8 0 1 1-9.6 0z" fill="#fff" stroke="#000" stroke-width=".0011931cm" shaper:cutDepth="0.000004"/><path transform="matrix(1 0 0 -1 5.7854 5)" d="m5.5123-3.4445-1.2721 0.79488a5 5-32 0 0-8.4805 0l-1.2721-0.79488a6.5 6.5-148 0 1 11.025 0z" fill="#fff" stroke="#000" stroke-width=".0011931cm" shaper:cutDepth="0.000004"/></g><g stroke-width="1.2117"><g transform="matrix(.8429 0 0 .80804 .88744 1.369)"><path transform="matrix(1 0 0 -1 5.7854 5)" d="m-4.5301-3.1027v0l0.027182 0.018729 0.013937 0.00866 0.014352 0.0078 0.014878 0.00672 0.01533 0.0058 0.031416 0.010041v0l0.028555 0.00489 0.014293 0.00174 0.014311 8.957e-4 0.014334-1.571e-4 0.014354-0.00104 0.028739-0.00355v0l0.025795-0.00674 0.012683-0.00391 0.012424-0.00455 0.012109-0.00533 0.011851-0.00597 0.023272-0.013012v0l0.021669-0.015632 0.010478-0.0082 0.01005-0.00867 0.00952-0.00925 0.00908-0.00973 0.017421-0.020252v0l0.014776-0.021768 0.0069-0.011135 0.00632-0.011435 0.00561-0.0118 0.00503-0.012096 0.00911-0.024685v0l0.00697-0.026483 0.00292-0.013318 0.00223-0.01341 0.0014-0.013523 7.109e-4 -0.013615 2.787e-4 -0.027384v0l-0.0046-0.028308-0.00296-0.013949-0.00376-0.013704-0.00471-0.013413-0.00547-0.013181-0.01219-0.025974v0l-0.017911-0.027695-0.0096-0.01328-0.010383-0.0126-0.011287-0.01181-0.012-0.011187-0.025189-0.021335-0.04819-0.036866-0.10445 0.13654 0.04819 0.036866v0l0.0193 0.017019 0.00859 0.00912 0.00732 0.00986 0.00566 0.010822 0.00415 0.011702 0.00576 0.024878v0l-7.932e-4 0.022317-0.00134 0.010876-0.00246 0.010536-0.00383 0.010126-0.00493 0.00979-0.011704 0.019036v0l-0.015576 0.01651-0.0083 0.00745-0.00891 0.00649-0.00966 0.00531-0.010271 0.00434-0.021566 0.00706v0l-0.025295 2.874e-4 -0.01226-0.00122-0.011798-0.00285-0.011299-0.00461-0.010917-0.00596-0.021197-0.014167-0.50332-0.38504v0l-0.019427-0.017014-0.00873-0.00911-0.00755-0.00983-0.00601-0.010776-0.0046-0.011639-0.00684-0.024722v0l0.00179-0.022414 0.00176-0.010921 0.00281-0.010579 0.00407-0.010164 0.00509-0.00983 0.011894-0.019095v0l0.01505-0.016238 0.00802-0.00736 0.00861-0.00644 0.00934-0.00531 0.00996-0.00436 0.020934-0.00714v0l0.025878-5.324e-4 0.012558 0.00111 0.012102 0.00276 0.0116 0.00458 0.011212 0.00598 0.021779 0.014303 0.17937 0.13722-0.082948 0.10843 0.12048 0.092164 0.1874-0.24497-0.29985-0.22939v0l-0.027453-0.019113-0.014078-0.00883-0.014501-0.00797-0.015043-0.00686-0.015521-0.00588-0.031839-0.01012v0l-0.027658-0.00448-0.01384-0.00158-0.013852-7.815e-4 -0.013868 2.139e-4 -0.013881 0.00105-0.027785 0.0035v0l-0.026743 0.00693-0.01314 0.00404-0.012862 0.00472-0.012521 0.00556-0.012241 0.00625-0.024015 0.013657v0l-0.021443 0.015249-0.010358 0.00802-0.00992 0.0085-0.00938 0.00909-0.00894 0.00957-0.017144 0.019956v0l-0.014988 0.022113-0.00701 0.011307-0.00643 0.011607-0.00574 0.011968-0.00518 0.012259-0.00942 0.025004v0l-0.00639 0.026139-0.00258 0.013135-0.00184 0.013213-9.357e-4 0.013308-2.019e-4 0.013385 8.196e-4 0.026899v0l0.00339 0.028086 0.00241 0.013847 0.00326 0.013612 0.00428 0.013331 0.0051 0.013106 0.011554 0.025836v0l0.018098 0.028082 0.00973 0.013442 0.010554 0.012725 0.011485 0.011911 0.012211 0.011276 0.02563 0.021495z" stroke-linecap="round" stroke-linejoin="round" stroke-width="1.4682" shaper:cutDepth="0.000004"/></g><g transform="matrix(.8429 0 0 .80804 .88744 1.369)" stroke-linecap="round" stroke-linejoin="round"><path transform="matrix(1 0 0 -1 5.7854 5)" d="m-4.6785-4.3759 0.83999 0.85698 0.19739-0.19348 0.020063-0.029759 0.019344-0.029734 0.017907-0.029684 0.00819-0.014815 0.00756-0.014794 0.00684-0.014768 0.00603-0.01474 0.00514-0.014709 0.00415-0.014675 0.00307-0.014637 0.0019-0.014596 6.461e-4 -0.014552-6.767e-4 -0.014506-0.00195-0.014462-0.00315-0.01442-0.00426-0.014381-0.0053-0.014345-0.00626-0.014312-0.00713-0.014281-0.00793-0.014253-0.00865-0.014228-0.019131-0.028393-0.021044-0.028326-0.02232-0.028282-0.022958-0.02826-0.033826-0.031741-0.017523-0.014985-0.018255-0.013923-0.019198-0.012555-0.020035-0.01134-0.041469-0.02065-0.020498-0.0059-0.020525-0.00521-0.020578-0.00383-0.010318-0.00118-0.010341-5.8e-4 -0.020752 6.473e-4 -0.020825 0.00255-0.020874 0.00382-0.020899 0.00445-0.25102-0.52095-0.12999 0.12741 0.2443 0.47798-0.073421 0.071965-0.35865-0.3659z" stroke-width="1.4682" shaper:cutDepth="0.000004"/><path transform="matrix(1 0 0 -1 5.7854 5)" d="m-3.829-3.7548-0.26191-0.26721 0.06981-0.068426 0.013606-0.012607 0.014314-0.011577 0.015606-0.0097 0.016488-0.00842 0.013877-0.00338 0.013949-0.00197 0.014072 4.33e-4 0.014147 0.0019 0.014233 0.00526 0.013723 0.00624 0.012925 0.00779 0.012471 0.00866 0.031069 0.026059 0.02917 0.028176 0.027022 0.029109 0.024816 0.031001 0.00897 0.013429 0.00793 0.013926 0.00613 0.014792 0.00499 0.015341-8.777e-4 0.017234-0.0017 0.016895-0.00334 0.016217-0.00255 0.00775-0.00323 0.00747-0.00827 0.014183-0.010167 0.013401-0.01143 0.01288-0.012062 0.01262z" fill="#fff" stroke="#000" stroke-width=".0012117cm" shaper:cutDepth="0.000004"/></g><g transform="matrix(.8429 0 0 .80804 .88744 1.369)" stroke-linecap="round" stroke-linejoin="round"><path transform="matrix(1 0 0 -1 5.7854 5)" d="m-4.0751-4.9466 0.92843 0.80612 0.11524-0.085103-0.49729-1.1245-0.13829 0.10212 0.11251 0.23747-0.18845 0.13917-0.19386-0.1774z" stroke-width="1.4682" shaper:cutDepth="0.000004"/><path transform="matrix(1 0 0 -1 5.7854 5)" d="m-3.4842-4.8613 0.19052 0.39985-0.00271 2e-3 -0.3261-0.29973z" fill="#fff" stroke="#000" stroke-width=".0012117cm" shaper:cutDepth="0.000004"/></g><g transform="matrix(.8429 0 0 .80804 .88744 1.369)"><path transform="matrix(1 0 0 -1 5.7854 5)" d="m-3.298-5.493 0.56885 1.0566 0.14543-0.078296-0.11421-0.75967 0.00297-0.0016 0.34275 0.63663 0.15137-0.081492-0.56885-1.0566-0.14246 0.076698 0.11044 0.75978-0.00297 0.0016-0.34195-0.63515z" stroke-linecap="round" stroke-linejoin="round" stroke-width="1.4682" shaper:cutDepth="0.000004"/></g><g transform="matrix(.8429 0 0 .80804 .88744 1.369)" stroke-linecap="round" stroke-linejoin="round"><path transform="matrix(1 0 0 -1 5.7854 5)" d="m-2.4474-5.9201 0.40987 1.1278 0.23919-0.086926 0.028804-0.012215 0.028086-0.013046 0.01355-0.00709 0.013101-0.00761 0.012563-0.00824 0.011934-0.00897 0.011218-0.00979 0.010487-0.010641 0.00985-0.011376 0.00932-0.011988 0.017485-0.025322 0.01664-0.026301 0.00832-0.030302 0.0071-0.030294 0.00272-0.015141 0.00196-0.015136 0.00104-0.015129-6.9e-6 -0.015122-0.00104-0.015114-0.00195-0.015108-0.00273-0.015102-0.00338-0.015098-0.0082-0.030185-0.00924-0.030178-0.1917-0.52748-0.013019-0.031826-0.013896-0.031103-0.00755-0.015054-0.0081-0.014602-0.00876-0.01406-0.00952-0.013427-0.010401-0.012704-0.011323-0.011943-0.012135-0.011274-0.012811-0.010716-0.027109-0.020206-0.028191-0.019314-0.030958-0.00863-0.03095-0.00737-0.01547-0.00281-0.015466-0.00202-0.01546-0.00107-0.015454 2.25e-5 -0.015448 0.00109-0.015443 0.00203-0.015438 0.00283-0.015434 0.0035-0.030861 0.00847-0.030854 0.00954z" stroke-width="1.4682" shaper:cutDepth="0.000004"/><path transform="matrix(1 0 0 -1 5.7854 5)" d="m-1.9312-5.0031-0.29935-0.8237 0.07445-0.027056 0.027261-0.00841 0.013618-0.00296 0.013602-0.00146 0.013582 5.165e-4 0.013562 0.00242 0.013549 0.0037 0.013542 0.00434 0.022709 0.02012 0.010258 0.010859 0.00896 0.011804 0.00762 0.012779 0.0066 0.013519 0.011511 0.028271 0.19745 0.54332 0.00865 0.027726 0.00336 0.013936 0.00221 0.014024 7.075e-4 0.01414-6.962e-4 0.014247-0.00375 0.028675-0.00718 0.012822-0.00766 0.012285-0.00863 0.011212-0.00483 0.00504-0.00524 0.00459-0.011549 0.00799-0.012669 0.00675-0.027205 0.011439z" fill="#fff" stroke="#000" stroke-width=".0012117cm" shaper:cutDepth="0.000004"/></g><g transform="matrix(.8429 0 0 .80804 .88744 1.369)"><path transform="matrix(1 0 0 -1 5.7854 5)" d="m-0.1247-5.22-0.31464-1.1717-0.16074 0.018493-0.041601 0.78857-0.003349 3.853e-4 -0.21792-0.75872-0.16074 0.018493-0.040323 1.2126 0.18083-0.020805-0.00168-0.76663 0.003349-3.853e-4 0.22102 0.74139 0.1306-0.015026 0.04978-0.79121 0.003349-3.853e-4 0.17123 0.76578z" stroke-linecap="round" stroke-linejoin="round" stroke-width="1.4682" shaper:cutDepth="0.000004"/></g><g transform="matrix(.8429 0 0 .80804 .88744 1.369)"><path transform="matrix(1 0 0 -1 5.7854 5)" d="m0.035111-6.4005-0.022697 1.1998 0.17188 0.00325 0.022697-1.1998z" stroke-linecap="round" stroke-linejoin="round" stroke-width="1.4682" shaper:cutDepth="0.000004"/></g><g transform="matrix(.8429 0 0 .80804 .88744 1.369)"><path transform="matrix(1 0 0 -1 5.7854 5)" d="m0.51292-6.3836-0.13917 1.1919 0.17075 0.019938 0.11924-1.0212 0.33815 0.039485 0.019938-0.17075z" stroke-linecap="round" stroke-linejoin="round" stroke-width="1.4682" shaper:cutDepth="0.000004"/></g><g transform="matrix(.8429 0 0 .80804 .88744 1.369)"><path transform="matrix(1 0 0 -1 5.7854 5)" d="m1.2999-6.2708-0.28579 1.1655 0.16696 0.040941 0.24485-0.99851 0.33065 0.08108 0.040941-0.16696z" stroke-linecap="round" stroke-linejoin="round" stroke-width="1.4682" shaper:cutDepth="0.000004"/></g><g transform="matrix(.8429 0 0 .80804 .88744 1.369)"><path transform="matrix(1 0 0 -1 5.7854 5)" d="m2.8119-5.3732 0.031269-0.067242v0l0.00998-0.025493 0.00435-0.012898 0.00359-0.013078 0.00265-0.0133 0.00187-0.013482 0.00246-0.027267v0l-4.07e-4 -0.026391-7.751e-4 -0.013113-0.00146-0.013014-0.0023-0.012893-0.00298-0.012795-0.00709-0.025426v0l-0.010269-0.025091-0.00565-0.012251-0.00628-0.011897-0.00703-0.011469-0.00764-0.011123-0.016301-0.021668v0l-0.019369-0.019367-0.010097-0.00913-0.010593-0.00847-0.011187-0.00767-0.011666-0.00703-0.024129-0.012983v0l-0.023289-0.00959-0.023661-0.0084-0.024271-0.00644-0.024631-0.00528v0l-0.025773-0.00278-0.012858-7.274e-4 -0.012824 6.8e-5 -0.012782 0.00104-0.012748 0.00183-0.025439 0.00498v0l-0.026066 0.00897-0.012733 0.00508-0.012373 0.00579-0.011947 0.00663-0.011607 0.00731-0.022647 0.015738v0l-0.02443 0.025157-0.011431 0.013147-0.010493 0.013827-0.00946 0.014576-0.00867 0.015153-0.016007 0.031267-0.27858 0.59907v0l-0.010511 0.026057-0.00466 0.013181-0.00394 0.013364-0.00305 0.013593-0.00231 0.013783-0.00338 0.027885v0l1.066e-4 0.026439 6.702e-4 0.01313 0.00141 0.013022 0.00232 0.012888 0.00308 0.012778 0.00742 0.025373v0l0.01068 0.024181 0.00588 0.011756 0.00653 0.011353 0.00731 0.010866 0.00795 0.010472 0.016956 0.020287v0l0.021293 0.020332 0.011059 0.0096 0.011554 0.00891 0.012144 0.0081 0.012615 0.00745 0.026016 0.013808v0l0.026137 0.00964 0.026186 0.00861 0.013126 0.0036 0.013157 0.00295 0.013193 0.00218 0.013236 0.00128 0.013284 2.686e-4 0.013329-6.856e-4 0.013367-0.0015 0.013399-0.00219 0.02687-0.00587 0.026921-0.00696v0l0.024874-0.011748 0.012072-0.00643 0.011634-0.0071 0.011109-0.0079 0.010687-0.00855 0.02067-0.018165v0l0.020332-0.021293 0.0096-0.011059 0.00891-0.011554 0.0081-0.012144 0.00745-0.012615 0.013808-0.026016 0.028427-0.061129-0.15588-0.072488-0.024163 0.05196v0l-0.01182 0.020527-0.00657 0.00965-0.00736 0.0089-0.00834 0.00798-0.00916 0.00721-0.019691 0.013124v0l-0.021383 0.00751-0.010709 0.0025-0.01073 1e-3 -0.010755-8.108e-4 -0.010775-0.00228-0.021583-0.00699v0l-0.022458-0.012542-0.010076-0.00718-0.00869-0.00826-0.00368-0.00465-0.0032-0.00503-0.0052-0.01101-0.00407-0.011899-0.0035-0.012344v0l0.00172-0.025626 0.00162-0.01264 0.00253-0.012432 0.00353-0.012204 0.0043-0.012028 0.00988-0.023764 0.25868-0.55628v0l0.010886-0.02029 0.00599-0.0097 0.00664-0.00916 0.00747-0.00847 0.00821-0.00787 0.017635-0.014735v0l0.011248-0.0041 0.011245-0.00349 0.011239-0.00227 0.01123-4.56e-4 0.01122 0.00151 0.011212 0.00301 0.022412 0.00853v0l0.015629 0.00875 0.014332 0.010755v0l0.00732 0.00772 0.00675 0.00814 0.0058 0.00884 0.00523 0.00926v0l0.00353 0.010778 0.00255 0.010945 0.00103 0.011205 1.716e-4 0.011353v0l-0.00188 0.014976-0.00307 0.014664-0.00487 0.014189-0.00588 0.013924-0.024873 0.053488z" stroke-linecap="round" stroke-linejoin="round" stroke-width="1.4682" shaper:cutDepth="0.000004"/></g><g transform="matrix(.8429 0 0 .80804 .88744 1.369)" stroke-linecap="round" stroke-linejoin="round"><path transform="matrix(1 0 0 -1 5.7854 5)" d="m3.9958-5.0071-0.78851 0.90457 0.20836 0.18162 0.03124 0.017669 0.031159 0.016954 0.030996 0.015525 0.015412 7e-3 0.015341 0.00638 0.015259 0.00566 0.015168 0.00486 0.015066 0.00397 0.014955 0.00299 0.014833 0.00191 0.014701 7.535e-4 0.014558-4.965e-4 0.014409-0.00181 0.014264-0.00308 0.014129-0.00427 0.014003-0.00538 0.013886-0.00641 0.013777-0.00736 0.013678-0.00823 0.013588-0.00902 0.013507-0.00974 0.026806-0.021298 0.02659-0.0232 0.026445-0.024468 0.026373-0.025102 0.028992-0.03621 0.013566-0.018644 0.012449-0.01929 0.011012-0.020123 0.00973-0.020862 0.017336-0.04296 0.00428-0.020897 0.00359-0.02087 0.00221-0.020815 3.702e-4 -0.010378-2.323e-4 -0.010355-0.00227-0.020637-0.00417-0.020561-0.00544-0.020511-0.00608-0.020486 0.49968-0.29108-0.13721-0.11961-0.45736 0.28101-0.077498-0.067555 0.33667-0.38622z" stroke-width="1.4682" shaper:cutDepth="0.000004"/><path transform="matrix(1 0 0 -1 5.7854 5)" d="m3.4432-4.1116 0.24586-0.28204 0.073687 0.064233 0.013634 0.012576 0.012664 0.013363 0.010894 0.014798 0.00969 0.015777 0.00446 0.013569 0.00305 0.013752 6.713e-4 0.014063-7.873e-4 0.014253-0.00412 0.014601-0.00515 0.01417-0.00675 0.013495-0.00766 0.013111-0.023543 0.033016-0.025803 0.031289-0.026901 0.02922-0.028961 0.027169-0.012685 0.00999-0.013261 9e-3 -0.014266 0.00727-0.014902 0.00618-0.01725 4.758e-4 -0.016976-3.703e-4 -0.016429-0.00206-0.00792-0.00193-0.0077-0.00263-0.014788-0.00714-0.014157-0.00909-0.013737-0.010385-0.013526-0.011035z" fill="#fff" stroke="#000" stroke-width=".0012117cm" shaper:cutDepth="0.000004"/></g><g transform="matrix(.8429 0 0 .80804 .88744 1.369)" stroke-linecap="round" stroke-linejoin="round"><path transform="matrix(1 0 0 -1 5.7854 5)" d="m2.7381-4.7593-0.016541 0.028567-0.00754 0.014572-0.00666 0.014919-0.00554 0.015359-0.00458 0.015738-0.00755 0.032106-0.00263 0.02885-6.144e-4 0.014385 2.287e-4 0.014337 0.00128 0.014278 0.00216 0.014228 0.00579 0.028373 0.00875 0.025187 0.00489 0.012337 0.00551 0.01203 0.00626 0.011654 0.00688 0.011346 0.014796 0.022181 0.017282 0.020377 9e-3 0.0098 0.00943 0.00934 0.00996 0.00877 0.010408 0.00829 0.021555 0.01578 0.022859 0.013024 0.011641 0.00601 0.011895 0.0054 0.012203 0.00467 0.012453 0.00407 0.025323 0.00714 0.026948 0.00488 0.013506 0.00186 0.013544 0.00118 0.01359 3.328e-4 0.013629-3.583e-4 0.027321-0.00187 0.027861-0.0068 0.013674-0.00405 0.013367-0.00482 0.013002-0.00575 0.012712-0.00648 0.024939-0.014189 0.026206-0.020026 0.012487-0.010616 0.011747-0.011338 0.010889-0.012178 0.010212-0.01284 0.019295-0.026783 0.34441-0.53195 0.016903-0.028866 0.0077-0.014728 0.00681-0.015081 0.00566-0.015534 0.00464-0.015934 0.00759-0.032534 0.0023-0.027924 4.871e-4 -0.013921-3.066e-4 -0.013871-0.0013-0.013809-0.00214-0.013756-0.00567-0.027425-0.00901-0.026117-0.00506-0.012783-0.00572-0.012452-0.00653-0.012046-0.00719-0.011713-0.015497-0.02287-0.016883-0.020181-0.00881-0.0097-0.00925-0.00922-0.0098-0.00864-0.010245-0.00816-0.021239-0.015527-0.02322-0.013209-0.011822-0.0061-0.012075-0.0055-0.012381-0.00478-0.012627-0.0042-0.025666-0.00743-0.02656-0.00432-0.013296-0.00154-0.013316-7.957e-4 -0.01334 1.101e-4 -0.01336 8.479e-4 -0.026752 0.00293-0.027734 0.00558-0.013616 0.00348-0.013315 0.00432-0.012955 0.00531-0.012666 0.00611-0.024851 0.013544-0.026577 0.020243-0.012638 0.010757-0.011858 0.011519-0.010974 0.012383-0.010285 0.013057-0.019421 0.027236z" stroke-width="1.4682" shaper:cutDepth="0.000004"/><path transform="matrix(1 0 0 -1 5.7854 5)" d="m3.2268-5.1978 0.015439-0.0207 0.0084-0.00942 0.00921-0.00829 0.010272-0.00683 0.011242-0.0055 0.024111-0.00875 0.022485 2.77e-5 0.011026 9.032e-4 0.010766 0.00197 0.010452 0.00326 0.010197 0.00431 0.019969 0.010361 0.017367 0.013731 0.00796 0.00742 0.0071 0.00808 0.00602 0.0089 0.00513 0.00958 0.00876 0.02031 0.00256 0.025757-1.258e-4 0.012606-0.00181 0.012281-0.00366 0.011923-0.00509 0.011647-0.012552 0.022833-0.34441 0.53195-0.015454 0.020575-0.00842 0.00928-0.00926 0.00807-0.010345 0.0065-0.011341 0.00505-0.024351 0.00769-0.022311 9.584e-4 -0.010947-4.804e-4 -0.010697-0.00163-0.010395-0.00302-0.010151-0.00415-0.019894-0.010175-0.01768-0.014234-0.00808-0.00769-0.00717-0.00837-0.00605-0.00921-0.00513-0.0099-0.00873-0.020947-0.00227-0.025195 2.58e-4 -0.012318 0.00192-0.011985 0.00371-0.011626 0.00509-0.01135 0.012462-0.022242z" fill="#fff" stroke="#000" stroke-width=".0012117cm" shaper:cutDepth="0.000004"/></g><g transform="matrix(.8429 0 0 .80804 .88744 1.369)" stroke-linecap="round" stroke-linejoin="round"><path transform="matrix(1 0 0 -1 5.7854 5)" d="m4.6628-4.3917-0.90647 0.78633 0.16897 0.19479 0.021645 0.023209 0.011198 0.011163 0.011648 0.010632 0.012224 0.00995 0.012726 0.00936 0.02629 0.017741 0.027074 0.012615 0.013773 0.00545 0.014056 0.00442 0.014391 0.0032 0.014657 0.00223 0.029757 0.00285 0.032109-0.00142 0.015855-0.00163 0.015616-0.00273 0.015326-0.00406 0.015091-0.00514 0.029788-0.012085 0.037098-0.021554 0.018135-0.011372 0.017645-0.012077 0.017137-0.012807 0.016752-0.01336 0.032863-0.027642 0.025562-0.022856 0.024824-0.023584 0.023497-0.024893 0.022615-0.025762 0.016838-0.022544 0.00783-0.011596 0.00712-0.011986 0.00626-0.012458 0.00555-0.012843 0.00994-0.026327 0.00797-0.032645 0.00298-0.016384 0.00177-0.016459 2.853e-4 -0.01655-9.317e-4 -0.016625-0.00389-0.033374-0.013294-0.037833-0.00776-0.018311-0.00909-0.017587-0.010528-0.0168-0.011635-0.016196-0.025114-0.031385-0.057428-0.066203 0.35393-0.30702z" stroke-width="1.4682" shaper:cutDepth="0.000004"/><path transform="matrix(1 0 0 -1 5.7854 5)" d="m3.9912-3.5816 0.3081-0.26726 0.054115 0.062384 0.013212 0.016165 0.00616 0.00833 0.00563 0.00864 0.00493 0.00903 0.00425 0.00941 0.00737 0.019469 0.0022 0.015101 5.521e-4 0.00751-1.039e-4 0.00746-9.203e-4 0.0074-0.0016 0.00735-0.00434 0.014616-0.00724 0.014515-0.00842 0.013692-0.01024 0.012417-0.011271 0.011697-0.02945 0.029006-0.030725 0.027655-0.030184 0.025662-0.030757 0.024972-0.014123 0.010239-0.014698 0.00916-0.015703 0.00726-0.016341 0.00606-0.015006 0.00281-0.00749 8.493e-4 -0.00746 1.838e-4 -0.00744-6.343e-4 -0.00742-0.00131-0.014797-0.00374-0.017677-0.00936-0.00844-0.00521-0.00797-0.00583-0.00748-0.00648-0.00711-0.00697-0.013593-0.014765z" fill="#fff" stroke="#000" stroke-width=".0012117cm" shaper:cutDepth="0.000004"/></g><g transform="matrix(.8429 0 0 .80804 .88744 1.369)"><path transform="matrix(1 0 0 -1 5.7854 5)" d="m5.181-3.7583-0.1405 0.099064 0.099064 0.1405 0.1405-0.099064z" stroke-linecap="round" stroke-linejoin="round" stroke-width="1.4682" shaper:cutDepth="0.000004"/></g></g><path d="m8.703 5.6538a2.9501 2.8282 0 1 1-0.00253-0.51551l0.92922-0.015549a3.8773 3.717 0 1 0 0.00202 0.5466z" stroke-linecap="round" stroke-linejoin="round" shaper:cutDepth="0.0000035"/><path d="m8.534 5.6509a2.7816 2.6665 0 1 1-0.0026383-0.50985l-0.9319 0.015594a1.8544 1.7777 0 1 0-0.39652 1.3737h-1.4391v-0.88885h1.8385a1.8544 1.7777 0 0 0 8.335e-4 -0.00614z" stroke-linecap="round" stroke-linejoin="round" shaper:cutDepth="0.0000035"/></svg>
